<?xml version="1.0" encoding="UTF-8" standalone="no"?>
<svg height="400" width="300" xmlns="http://www.w3.org/2000/svg" xmlns:xlink="http://www.w3.org/1999/xlink">
<g stroke-width="1" stroke="#000" stroke-linecap="round" stroke-linejoin="round" transform="matrix(2 0 0 2 1432 -425)">
<g>
<path d="m-673.41049 282.05983s-5.52701-3.49733-8.27701-8.37233-6.25-8.4375-10.0625-9.3125c0 0 3.9375-3.125 9.375-.9375s7.0171 10.8924 8.57105 11.5087 2.54547 6.86096.39346 7.11363zm53.08199-21.56133s5.3285-8.061 11.016-9.561c0 0 .75 2.625-.625 5 0 0 4.875-3.3125 9.9375-4.75 0 0-5.51178 17.66841-25.19339 17.80296-1.19339-2.69704 4.86489-8.49196 4.86489-8.49196zm4.3943 35.3857s-1.41421-9.36916-4.33103-10.82757c-2.91681-1.45841-3.97747-7.6014-3.09359-12.19759 0 0 2.07713 4.28683 4.28683 5.78943 2.20971 1.50261 6.31977 2.91682 6.05461 13.43503z" fill="#5ab532"/>
<path d="m-620.25 245c.436 20.92796-22.02355 36.43082-27.7832 40.05859l-1.08116-24.90871 9.50374-3.92672.36534-2.45644-9.99644 3.44885-.54917-12.65224-4.08411-1.87583.125 36.3125s-2.875 11.375-2.5 15.9375.875 13.125.875 13.125-11.25-5.5625-12.75-17.9375-1.25-34.125-1.25-34.125l-5.375.25s1.125 10.3125 1 14-.75 22.4375 7.25 32.9375c0 0-6.25-4.3125-7.3125-6.1875s-5-3.75-7.875-3.1875 3.75 2.375.5625 3.75-8.1875.9375-8.1875 5.0625 5 .5625 5 .5625.5625-4.875 5.4375-3.9375 7.6875 6.0625 11.625 7.6875 6.5625 5.5 6.625 7.75c0 0-10-2.875-14.125 7.75l.0625 4.3125 1.75-.0625s5-12.125 12.125-8.5625 8.5 24.625 8.5 24.625 1.25 20.0625-5.625 31.0625c0 0-6.1875 2.6875-10.5 3.125s-13.4375.375-16.875 9.625c0 0 10.0625-4.75 24.8125-5.375 0 0-6.625 4.6875-11.9375 5.375 0 0 5.0625 1.5 13-1.5625 0 0-2.125 5.875-7 6.3125s-8.625 2.5-9.3125 6.4375c0 0 5.3125-.875 9.625-1.9375s10.3125-4.5625 10.3125-4.5625-5 4.5-1.6875 11.25c0 0 6.8125-10.0625 13.375-8.0625s8.43553 12.8609 17.80469 12.24219c0 0-4.02076-4.90546-3.97657-7.82227.0442-2.91682-6.6289-7.38086-6.6289-7.38086s6.98828-.10156 10.23828 3.21094 9.3125 5.125 12.1875 5.0625c0 0-3.375-6-12.3125-10.3125 0 0 2.65855-1.54133 10.74609-.9668 8.08753.57452 3.49149 3.40334 16.97071.97266 0 0-6.6543-4.81836-12.9043-3.31836s-23-6-22.25-15.875 2-16.875-1.0625-19.75.75-8.5 2.0625-17.875 2.5-18.6875 9.4375-19.25 12.3125-.5625 14.375 1.1875 3.3125.4375 1.1875-2.8125l7.6875-7.5625-4.875 1.9375-3.9375 3.125s-12.5-.125-14.5625.125c0 0 14.4375-12.5625 16.6875-20.4375 0 0 6.8125-3.625 4.9375-9.1875 0 0-2.4375 4.375-3.6875 4.5625s-1.5625-6.5-1.5625-6.5l-1.875.75s6 8-15.8125 23.875c0 0-11.01406 10.58926-15.8125 11.875s-10.3125-8-4.625-13.5625 6.75-9.5 6.75-9.5l-4.5625.3125-4.3125 5.3125c-1.4019-1.32725-5.81127-.62773-.12695-6.73047 6.066-3.74698 29.58963-19.78664 31.43945-44.26953z" fill="#9d5324"/>
<path d="m-659.4375 385s6.25-4.4375 8.0625-12.3125m-4.4375 18.5625s6-4.3125 7.375-12.8125m11.51107 13.0387s-7.07357-4.3512-3.44857-17.0387m13.5625 15s-4.75.1875-6.6875-5.125m-3.9375-34.1875s-4.8125 4.5625-3.25 11.75m-1.0625 5.4375s1.25 2.375.625 3.4375m-5.875 20.625c1.625-1 1.3125-2.875 1.3125-2.875s.9375 2.5625 2.4375 3.5m4-59.5s-2.375 1.1875-1.875 7.9375m-10.5625-22.25s4 4.125 4.3125 7.5m-.9375-13.375s2.5625 4.4375 2.25 6.125m7.0625-.4375s.4375 1.5-1.3125 2.1875m16.375-10.8125s-4.06171 2.10975-6.18303 4.84978" fill="none"/>
<path d="m-652.875 293.1875s3.2773-21.21651 22.9199-23.82701c0 0 .85027 7.7057-7.47231 13.01636-8.32259 5.31065-12.60708 9.45811-13.69581 12.97804-1.08874 3.51994-1.75178-2.16739-1.75178-2.16739z" fill="#5ab532"/>
<path d="m-640.41777 257.08172s2.03293-8.17592 6.45235-8.70625 8.66206-.30936 9.67852-2.96101c0 0 1.81196 8.35269-6.40815 9.72271-8.22012 1.37002-9.104.35356-9.72272 1.94455zm38.10527 22.66828s3.30467-4.68125 2.59756-9.45422c-.7071-4.77297-.35355-12.55115 5.56847-19.88738 0 0 1.85615-2.03293 2.56326-7.68979 0 0 3.71231 10.78338 2.03293 14.23053-1.67938 3.44714-4.24264 8.39689-3.35875 10.87176 0 0 10.51821-7.33623 20.06415-6.36396-5.09144 5.54184-8.15644 7.77683-13.08148 13.74439 0 0 14.42636-1.20133 14.92636 3.79867 0 0-7-.375-9.25 3.125s-19.10492 3.12127-21.77121.18564c-2.12019-.34168-.24599-2.34545-.29129-2.56064zm-62.23529 8.5328s-1.72357 5.74525 2.43068 9.50175c4.15425 3.75651 4.23985 6.83143 9.36916 6.36396 0 0 6.1262-8.77135 11.81207-9.02243 5.68588-.25108 11.18588-4.87608 10.68588-10.00108 0 0-17.5 5-20.8125 11.6875 0 0-.0625-20.8125-13.8125-27.625 0 0-2.625 14 6.375 24.8125-3.52545-.69368-4.53751-2.13329-6.04779-5.7172zm44.29779-43.2828c-5.33227-20.52281 2.59223-26.67657 2.59223-26.67657s-.71723 11.55157.53277 13.80157 2.5 5.75 2.375 7.75c0 0-.6875-8.625 3.125-12.875s3.9375-8.3125 3.9375-8.3125 4.4375 5.4375 3.4375 11.5-4.625 6.3125-4.9375 11.4375c6.89837-2.59223 9.06201-1.93215 15.125-8.0625 0 0 1.625 11.8125-6.1875 13.6875s-9.4375-1.25-11.9375 2.6875-8.0625-4.9375-8.0625-4.9375zm-33.5625 6.1875s-1.75-2.1875-4.5-2.875-8.4375-4.5625-6.9375-9.25c0 0 2.4375.25 4.5625 2.5625s10.625 1.3125 6.875 9.5625zm17.8125-7.4375c-9 .6875-10.875-.75-12.25 3-4.36508-.48337-4.69785-2.37686-5.625-4.0625 0 0-4.1875-4.75-4.75-6.0625s-7.5625-12.5-10-14.3125c0 0 6.5625-2 12.0625 3s5.25 9.6875 5.25 9.6875c7.69704-12.85983 11.65703-9.66696 26.0625-15.125 0 0 1.625 10.0625-11.9375 15.3125 0 0 10.125.1875 12.59375-1.25 0 0-2.40625 9.125-11.40625 9.8125zm26.5625 70.8125s1.81181 8.19176 1.01631 11.81568-.88388 9.50175 1.72357 10.73919c0 0 .88389-4.02167 2.78424-5.03814s3.97747-3.62392 3.66811-9.23658c0 0 5.74524 1.19324 10.87177-3.84489 0 0-3.31456.22097-5.65686-.48614 0 0 7.55721-1.90035 10.91597-7.11526 0 0-7.29204 1.90035-13.74439 1.01646-6.45235-.88388-12.41825-.78297-11.57872 2.14968zm4.00781-9.11113s-.53033-11.18113 11.66727-16.92637c0 0 .13258 8.57367-3.31457 12.46275 0 0 7.2236-6.27941 12.6611-6.02941 0 0-4.375 7.46875-7.5625 8.875 0 0 4.90625-.28125 7.375 1.875 0 0-3.40625.1875-6.9375 1.8125s-14.37135 4.29856-13.8888-2.06947zm-68.35468-47.66255s-6.01041 2.65166-14.49569 2.51907c-8.48528-.13258-14.67247-1.94454-14.67247-1.94454s6.27558-1.59099 8.3527-2.82843c2.07713-1.23743 6.45235-2.78423 7.77818-2.96101 0 0-10.60661-8.26431-8.83884-14.58408 5.62389 7.22303 18.49782 8.13423 22.45064 16.08669-5.60171-10.57103-8.59794-17.43505-7.99914-26.25135 0 0 11.62734 7.27717 10.81484 23.90217zm-13.32714 41.553s-6.26349-7.77932-9.51349-8.15432-10-6.25-10-6.25-2.0625 8.3125 5.0625 12.125c0 0-5.94203-.29441-9.2124 4.21339 0 0 2.78424 1.90035 8.3969 1.19324 0 0-6.49655 8.66206-8.48528 10.12047 0 0 10.42982.70711 15.24699-5.70105 1.66358-2.27479 11.24129-5.90072 8.50478-7.54673zm6.11151-4.59182c-19.125-5.9375-16.625-27.8125-16.625-27.8125s3.15775 7.60092 6.07457 9.05932c0 0 1.94454-2.51906 1.90035-7.95495 0 0 9.8553 14.31892 9.14819 20.37352-1.58199 2.63184 2.69863 8.34481-.49811 6.33461zm-16.33987 28.79976s3.00521 3.62392 9.19239 3.09359c0 0-.22097 5.74524-7.73398 6.62912 0 0 5.21491 5.87783 12.81631.22097-.51232 5.12222 3.42767 10.25615 2.43068 14.89344 0 0 7.33623-5.17072 7.82237-15.55635 0 0 1.59099 3.93328 3.31456 4.90556 1.72357.97227 3.00521 2.29809 3.31457 3.88908 0 0 3.31456-4.28683 2.60745-8.44108-.70711-4.15426-8.61786-6.0988-9.0598-7.77818-.44195-1.67938.22097-5.74524-3.66812-5.87782-3.88909-.13259-7.5572-1.50261-12.33018 1.37001-4.77297 2.87263-8.70625 2.65166-8.70625 2.65166z" fill="#5ab532"/>
<path d="m-663.35455 224.06867s8.10708 5.70485 9.98789 14.23052m6.40493 1.50542s1.72679-7.95776 5.96943-9.54876c4.24265-1.59099 10.34144-4.15425 10.69499-5.56846m21.79731 5.06261s-5.17071 6.79011-4.375 10.125m14 38.125s14.74427-13.36741 19.125-13.625m-115.5 36.6875c-4.89822 2.23571-5.53348 5.60783-10.4375 9.25m42.42134-36.56958s8.66206 15.29119 9.01561 19.53383m61.34152-25.45585s-6.54112 5.90029-7.49874 8.10821m14.48141-.72778s-14.85402 4.09892-16.86908 6.16183m-55.70456 12.63684s5.33592 4.06879 4.48046 10.19064m2.95704-7.37814c.14144.81868-1.05599 2.58507-.77737 6.13451m.52737-67.94701s.4375 5.75-2.5625 7.6875m16.6875-7.5s-9.72473 1.55063-14.65725 10.41199m51.59948 77.24316s-6.65556-7.18138-9.19223-8.28015m14.62585 4.01175c-5.31548-.97225-8.89461-6.70426-12.9153-6.24946m10.64996-11.33704s-3.13458 3.27663-8.36051 5.13725c0 0 5.22631-2.08719 13.45911-2.29166m-94.84326-51.25943s9.9779-1.01141 13.4154 4.36359m-28.97175 45.53163s2.68004-3.99264 5.72944-3.94844m-4.91394-1.45819s6.52073 3.19693 13.14986.85463m-3.13779-21.92031s7.9277 5.85309 10.71193 14.47095m-7.30898 36.17558s11.53468-1.14905 14.4515-6.0546m.88388 12.24178s-2.64911-7.80337-2.14911-10.74087m-8.10394 11.40378s.24915-6.2892 2.98528-8.64132m70.14237-68.91462s-3.7991 7.2979-13.64955 10.6177" fill="none"/>
</g>
<g>
<g id="c" stroke-width="12.992761" transform="matrix(.07744389 0 0 .07744389 -567.34541 274.17305)">
<path d="m-1406.6346 376.13037c7.6455 11.21192-13.6799-4.28897-7.6398 6.37525.3221 2.5421-17.9495-3.79024-10.2788 6.33301 8.4114 8.9183-8.2302-.84571-6.9986 1.82903 4.1934 3.55009 5.0965 4.2644-.3161 1.90338-7.7351-3.63266-3.507 13.20007-11.5125 4.36576-6.0506-4.34227-5.4423 10.12983-10.4731 4.15729 4.6226 8.99608-6.276 6.64964-8.0231 6.96028 4.4598 4.35063 6.2924 8.89309.094 12.67349.6284 5.17325 5.6739 5.95371-1.7205 3.93292-6.3918 1.8274 3.878 18.14833-7.6214 12.86188-8.3074-4.40591-.1626 10.0521-1.8429 13.27169-7.7213 4.44336-5.2703 14.07281-3.4919 12.6146 1.9204 2.05156 10.4822 5.47139 2.1078 7.55309-9.7916 4.27025 12.5957 2.79488.9955 6.71785-4.0661 1.12851-9.4765 4.47929-1.6544 2.83034 5.8979-1.62718 3.8433 2.69088-.1635 3.94367 4.5138-2.17638 12.2817-2.03266 5.7215 4.04012 4.0458 1.21554 13.5022-5.06441 5.8922 1.52597-8.4502 7.11744 3.8689 4.13489 7.9487 1.8555-3.891 3.11886-7.8024 12.82725.9974 8.07047 5.8664-3.65095-7.4862 7.17438 2.4644 3.8416 5.4039-2.50383 8.6004.77981 2.7641 4.12509-10.6591 7.83755 15.7972-6.50126 6.5741 4.23-2.1557 1.32544 5.2734-2.65604 2.2216 2.97598-2.2005 10.39568 7.8613-4.46545 7.7061 2.25451 5.1785-.48973 11.9869-.534 4.7443 5.08819-6.4903 4.54402 4.5881-.40552 5.3502 5.00026 5.3717-7.21228 2.8556 6.42456 9.8913 2.18011 7.2788-3.61161 1.3984 12.46497 5.5124 2.5536 3.3611-4.63568 7.5043 8.31683 9.5503-.73552.7527-2.46868.418 13.37383 4.382 3.61964 3.7754-7.44743 7.1185 6.39053 9.849-1.78906 2.5602-5.48237 7.1075-6.0557 5.0334 1.23741 1.5383.96701 10.7757-11.15167 14.5009-2.55623 6.1985 5.21441 6.6876-10.54342 9.1487-.13278 2.7878 9.10944 1.8922-.75713 3.7439-4.08872 3.904 1.27805 6.9494 10.05292 6.4763 2.10845 6.6078-1.64954 1.6346-14.08403 7.6596-5.87881 4.8157 1.61253-1.1957-13.69813 6.8747-7.40019 5.2214 3.94532 3.2184 3.43757 1.342-1.75999 5.2417-5.25041 23.8431 4.22102 19.0379-9.78451-1.8636-5.63364-3.157-15.38818 5.6225-9.90196 6.0569 5.50319 2.9408-5.4727 9.8471-3.61629-1.972-2.94392-10.389-7.92506-1.3536-9.97055-5.7359-6.69856 14.4125-3.28022 3.1998-8.9572-4.5003-1.76285-10.2918-6.20387-1.6333-4.86139 8.2239 1.85667 5.7212-4.42043.026-6.06063 12.5171 3.97384-5.1339-17.28093 9.3314-13.38083-7.4746-.92978-8.5816-6.18978-.8435-7.35869-5.6578-.69331-8.901-3.16874-2.199-6.45858 3.1311-1.45504 11.2186-2.6017 2.8999-3.41395-7.1325.53352-9.8374-5.55742-6.0315-10.47302-6.7512-2.75694-5.9959-1.26578-.2059-4.46147-5.1347-.85353-11.3732-4.70437-2.7669-6.85267 3.8099-1.51933 12.3316-2.8997 3.184-2.81947-7.2672 1.29248-22.9912-3.87722-11.7635-11.7886-6.1542 4.09945-13.7476 1.61999-12.3813-6.43645-3.9902-2.8305-10.457 7.2944-8.6703-1.35695-4.9368-5.41947-20.0351-.3049-17.382-13.54198-2.594 3.58503-8.0219 7.60088-8.447-.42201-.485-3.69056-3.3305 13.46551-6.5894 3.53034-3.2656-3.96062-3.5796 5.24413-6.9239.73065-4.843 2.90909-12.3004-2.26033-12.2365-2.50031-.1991 9.81146-10.2924-9.57926-11.9872 1.81947-1.4837 6.49226-3.358-8.10503-5.115-11.15722-.3912-1.07899-4.9871-1.28222-2.0376 3.00241 2.9494 4.28463-6.6133 6.28967-12.391 7.80273z" fill="#5ab532" stroke-width="9.744571"/>
<path d="m-1338.7232 439.41423-.4365 5.8492m-48.9985-19.44707-1.325 14.26384m-27.0862-24.38848-7.3486 5.27305m5.6794 6.8973-8.5298 4.04764m22.9213-4.76281-8.712 7.61245m13.2561 10.44966 1.1391 9.05128m-.315-23.17158-2.6779 7.10067m2.2709-22.32949-11.8474 4.49211m28.7429-5.92505-6.7331 5.82731m18.32 16.79264 1.1565 4.90551m-6.2691-13.67033-2.817 5.19192m33.3668-13.94882 2.8554 6.73248m-.7271-16.11146 7.1159 8.19067m-20.4377 18.1591 2.7894 8.45647m.045-17.79427 4.2675 6.81492m-15.0595-22.47702-1.0467 18.08131m11.169-18.18172.967 8.00456m20.1978-10.05221 6.5089 5.56342m-10.1571 8.39202 7.9784 5.9948m-53.8326 10.68092 3.2728 12.45874m11.9136-6.21605 2.099 11.69907m5.947-14.85799 1.1635 10.26221m9.9449-13.9335 3.7336 7.82043m4.8393-17.3416 5.2117 6.17886m.4641-19.49762 12.5344 7.12461m-51.0679-17.14887-.3059 9.83088m-8.4602-17.4267-4.862 8.70104m75.7845 12.18172 4.5565-1.51564m-6.5906 58.89621 2.5466 5.2838m-114.2548 22.23574-7.4171 7.00507m69.5144-21.58321 5.9845 13.01531m-71.8487-13.91693-3.9868 5.47587m-16.6928-27.71217-13.5263 2.54488m13.7407-22.14667-13.4639-1.73273m10.5465 10.14588-12.9238-1.61787m33.5553 13.45569-12.1299 2.61585m16.8811-7.70341-19.6355-1.91533m13.4563-7.52804-11.9407.39774m8.7195-17.11651-14.3311 1.01882m20.905-.0731-9.7614 7.41007m20.5944-1.26831-12.084 2.39977m18.4688.76401-11.0715 8.26079m20.3943 3.65745-8.9807 3.73689m17.1238-.87687-2.9743 11.33688m5.7068 3.69716-2.0667 9.72315m-48.3052-9.13842-15.0494.41445m46.9745-7.17848-17.6749 3.46971m-15.8172 11.99452-7.6543-1.1753m15.781 8.0968-7.3088 2.51145m24.074-14.98196-13.7964 2.48747m21.3184-2.01778-8.9108 8.72006m18.3419-1.29544-1.7507 9.56448m-5.3579-11.97879-7.6118 10.57699m-3.8676-1.72541-8.9457 6.22848m21.4507-1.31215-9.6183 5.40803m13.6936.65233-11.5362 11.77532m23.2451-21.70725-3.7276 8.24092m-4.854 8.22737-8.6866 8.99354m21.9078-14.0874-6.8988 12.5352m10.0042-.58353-.8377 6.5969m9.8381-26.36366-3.7386 10.94858m16.705 2.4216 5.5121 7.2691m-11.8586-19.90967 1.2312 7.48832m-9.1981-20.47335-8.0141 9.81398m21.9296-19.50272-2.9174 8.41316m24.2619 5.38286 3.4543 3.67005m-12.2643-8.70434.1563 5.90487m21.9221-28.76344 5.8391 4.4028m-8.6854-13.5894 10.2579 3.53537m-8.62 25.94508 6.6439 5.92884m-8.8582-15.43277 7.1032 3.76815m-24.2804-11.93593 8.1342 16.18222m.5818-21.33035 4.8397 6.44867m14.8442-49.91526 4.6024-1.7317m-3.4795 13.71364 6.1716.18264m-10.2153 8.21696 8.4646 1.34753m-7.9223 9.38183 8.4186 1.5636m-4.6003 12.34625 9.9069 1.20245m-41.2799 36.16623 9.0637 9.15318m7.2094-11.34003 7.6673 9.08221m-2.2787-15.84092 6.1387 8.3056m1.6458-17.03923 7.1436 4.9059m-4.4798-17.43794 7.6029 2.7452m-9.3469-17.11748 14.4174-.0971m-12.8799-12.44852 14.355 4.18043m-12.9258-12.23241 15.1358.50723m-13.3392-10.28778 13.5208-1.19105m-16.6228-22.729 7.1655-.50941m-6.48 9.23674 7.7112-1.74842m-48.4411 57.90476 4.6505 8.66676m-16.0401-10.86187.1399 9.96633m-10.8002-14.26472-1.5429 13.89945" fill="none" stroke-width="4.872285"/>
</g>
<g>
<use height="100%" transform="matrix(.96592583 .25881905 -.25881905 .96592583 43.853943 182.789993)" width="100%" xlink:href="#c"/>
<use height="100%" transform="matrix(0 -1 1 0 -977.352 -416.3717)" width="100%" xlink:href="#c"/>
<use height="100%" transform="translate(22.251463 -46.649515)" width="100%" xlink:href="#c"/>
<use height="100%" transform="matrix(-.96592583 -.25881905 .25881905 -.96592583 -1378.252748 376.515063)" width="100%" xlink:href="#c"/>
<use height="100%" transform="matrix(.96592583 -.25881905 .25881905 .96592583 -70.211252 -210.835509)" width="100%" xlink:href="#c"/>
<use height="100%" transform="translate(66.860076 -35.722702)" width="100%" xlink:href="#c"/>
<use height="100%" transform="matrix(.70710678 .70710678 -.70710678 .70710678 73.960575 554.962136)" width="100%" xlink:href="#c"/>
<use height="100%" transform="translate(59.720914 9.648306)" width="100%" xlink:href="#c"/>
<use height="100%" transform="translate(58.784551 -64.032787)" width="100%" xlink:href="#c"/>
</g>
</g>
</g>
</svg>